<mxfile host="app.diagrams.net" modified="2021-02-07T13:22:02.385Z" agent="5.0 (Windows NT 10.0; Win64; x64) AppleWebKit/537.36 (KHTML, like Gecko) Chrome/88.0.4324.146 Safari/537.36" etag="aqNfaH4hA451WD06K0dd" version="14.2.9" type="github">
  <diagram id="IpXtv5JcsFmNWFsp07GZ" name="Page-1">
    <mxGraphModel dx="716" dy="378" grid="0" gridSize="10" guides="1" tooltips="1" connect="1" arrows="1" fold="1" page="1" pageScale="1" pageWidth="827" pageHeight="1169" math="0" shadow="0">
      <root>
        <mxCell id="0" />
        <mxCell id="1" parent="0" />
        <mxCell id="ljF8R5CVYEsb0yx4XjRm-2" value="" style="endArrow=none;html=1;" edge="1" parent="1">
          <mxGeometry width="50" height="50" relative="1" as="geometry">
            <mxPoint x="166" y="260" as="sourcePoint" />
            <mxPoint x="500" y="260" as="targetPoint" />
          </mxGeometry>
        </mxCell>
        <mxCell id="ljF8R5CVYEsb0yx4XjRm-3" value="" style="endArrow=none;html=1;" edge="1" parent="1">
          <mxGeometry width="50" height="50" relative="1" as="geometry">
            <mxPoint x="166" y="325" as="sourcePoint" />
            <mxPoint x="500" y="325" as="targetPoint" />
          </mxGeometry>
        </mxCell>
        <mxCell id="ljF8R5CVYEsb0yx4XjRm-5" value="" style="endArrow=classic;html=1;" edge="1" parent="1">
          <mxGeometry width="50" height="50" relative="1" as="geometry">
            <mxPoint x="197" y="381" as="sourcePoint" />
            <mxPoint x="297" y="326" as="targetPoint" />
          </mxGeometry>
        </mxCell>
        <mxCell id="ljF8R5CVYEsb0yx4XjRm-6" value="" style="endArrow=none;dashed=1;html=1;" edge="1" parent="1">
          <mxGeometry width="50" height="50" relative="1" as="geometry">
            <mxPoint x="297" y="389" as="sourcePoint" />
            <mxPoint x="297" y="286" as="targetPoint" />
          </mxGeometry>
        </mxCell>
        <mxCell id="ljF8R5CVYEsb0yx4XjRm-7" value="" style="verticalLabelPosition=bottom;verticalAlign=top;html=1;shape=mxgraph.basic.arc;startAngle=0.511485198260379;endAngle=0.7170561691084778;" vertex="1" parent="1">
          <mxGeometry x="280" y="317" width="36" height="32" as="geometry" />
        </mxCell>
        <mxCell id="ljF8R5CVYEsb0yx4XjRm-9" value="&lt;font face=&quot;Times New Roman&quot; style=&quot;font-size: 23px&quot;&gt;3&lt;/font&gt;" style="text;html=1;resizable=0;autosize=1;align=center;verticalAlign=middle;points=[];fillColor=none;strokeColor=none;rounded=0;" vertex="1" parent="1">
          <mxGeometry x="166" y="219" width="21" height="21" as="geometry" />
        </mxCell>
        <mxCell id="ljF8R5CVYEsb0yx4XjRm-10" value="&lt;font face=&quot;Times New Roman&quot; style=&quot;font-size: 23px&quot;&gt;2&lt;/font&gt;" style="text;html=1;resizable=0;autosize=1;align=center;verticalAlign=middle;points=[];fillColor=none;strokeColor=none;rounded=0;" vertex="1" parent="1">
          <mxGeometry x="166" y="279" width="21" height="21" as="geometry" />
        </mxCell>
        <mxCell id="ljF8R5CVYEsb0yx4XjRm-11" value="&lt;font face=&quot;Times New Roman&quot; style=&quot;font-size: 23px&quot;&gt;1&lt;/font&gt;" style="text;html=1;resizable=0;autosize=1;align=center;verticalAlign=middle;points=[];fillColor=none;strokeColor=none;rounded=0;" vertex="1" parent="1">
          <mxGeometry x="166" y="337" width="21" height="21" as="geometry" />
        </mxCell>
        <mxCell id="ljF8R5CVYEsb0yx4XjRm-13" value="&lt;font face=&quot;Times New Roman&quot; style=&quot;font-size: 23px&quot;&gt;E&lt;/font&gt;" style="text;html=1;resizable=0;autosize=1;align=center;verticalAlign=middle;points=[];fillColor=none;strokeColor=none;rounded=0;" vertex="1" parent="1">
          <mxGeometry x="201" y="343" width="24" height="21" as="geometry" />
        </mxCell>
        <mxCell id="ljF8R5CVYEsb0yx4XjRm-14" value="" style="endArrow=classic;html=1;" edge="1" parent="1">
          <mxGeometry width="50" height="50" relative="1" as="geometry">
            <mxPoint x="206" y="338" as="sourcePoint" />
            <mxPoint x="224" y="338" as="targetPoint" />
          </mxGeometry>
        </mxCell>
        <mxCell id="ljF8R5CVYEsb0yx4XjRm-16" value="" style="verticalLabelPosition=bottom;verticalAlign=top;html=1;shape=mxgraph.flowchart.or;" vertex="1" parent="1">
          <mxGeometry x="235" y="364" width="13" height="13" as="geometry" />
        </mxCell>
        <mxCell id="ljF8R5CVYEsb0yx4XjRm-18" value="&lt;h1 class=&quot;heading&quot; style=&quot;box-sizing: inherit ; margin: 2.5rem 0px 1.5rem ; line-height: 1.2 ; color: rgb(64 , 64 , 64) ; background-color: rgb(255 , 255 , 255)&quot;&gt;&lt;font face=&quot;Times New Roman&quot; style=&quot;font-size: 20px&quot;&gt;Î¸&lt;/font&gt;&lt;/h1&gt;" style="text;html=1;resizable=0;autosize=1;align=center;verticalAlign=middle;points=[];fillColor=none;strokeColor=none;rounded=0;" vertex="1" parent="1">
          <mxGeometry x="271" y="306" width="20" height="97" as="geometry" />
        </mxCell>
        <mxCell id="ljF8R5CVYEsb0yx4XjRm-20" value="" style="endArrow=classic;startArrow=classic;html=1;" edge="1" parent="1">
          <mxGeometry width="50" height="50" relative="1" as="geometry">
            <mxPoint x="385" y="324" as="sourcePoint" />
            <mxPoint x="385" y="262" as="targetPoint" />
          </mxGeometry>
        </mxCell>
        <mxCell id="ljF8R5CVYEsb0yx4XjRm-21" value="&lt;font face=&quot;Times New Roman&quot; style=&quot;font-size: 23px&quot;&gt;h&lt;/font&gt;" style="text;html=1;resizable=0;autosize=1;align=center;verticalAlign=middle;points=[];fillColor=none;strokeColor=none;rounded=0;" vertex="1" parent="1">
          <mxGeometry x="401" y="285" width="21" height="21" as="geometry" />
        </mxCell>
        <mxCell id="ljF8R5CVYEsb0yx4XjRm-22" value="" style="endArrow=classic;html=1;" edge="1" parent="1">
          <mxGeometry width="50" height="50" relative="1" as="geometry">
            <mxPoint x="389" y="403" as="sourcePoint" />
            <mxPoint x="389" y="345" as="targetPoint" />
          </mxGeometry>
        </mxCell>
        <mxCell id="ljF8R5CVYEsb0yx4XjRm-23" value="" style="endArrow=classic;html=1;" edge="1" parent="1">
          <mxGeometry width="50" height="50" relative="1" as="geometry">
            <mxPoint x="390" y="403" as="sourcePoint" />
            <mxPoint x="449" y="403" as="targetPoint" />
          </mxGeometry>
        </mxCell>
        <mxCell id="ljF8R5CVYEsb0yx4XjRm-24" value="" style="endArrow=classic;html=1;" edge="1" parent="1">
          <mxGeometry width="50" height="50" relative="1" as="geometry">
            <mxPoint x="389" y="403" as="sourcePoint" />
            <mxPoint x="359" y="430" as="targetPoint" />
          </mxGeometry>
        </mxCell>
        <mxCell id="ljF8R5CVYEsb0yx4XjRm-25" value="&lt;font face=&quot;Times New Roman&quot; style=&quot;font-size: 23px&quot;&gt;x&lt;/font&gt;" style="text;html=1;resizable=0;autosize=1;align=center;verticalAlign=middle;points=[];fillColor=none;strokeColor=none;rounded=0;" vertex="1" parent="1">
          <mxGeometry x="338" y="414" width="21" height="21" as="geometry" />
        </mxCell>
        <mxCell id="ljF8R5CVYEsb0yx4XjRm-26" value="&lt;font face=&quot;Times New Roman&quot; style=&quot;font-size: 23px&quot;&gt;y&lt;/font&gt;&lt;span style=&quot;color: rgba(0 , 0 , 0 , 0) ; font-family: monospace ; font-size: 0px&quot;&gt;%3CmxGraphModel%3E%3Croot%3E%3CmxCell%20id%3D%220%22%2F%3E%3CmxCell%20id%3D%221%22%20parent%3D%220%22%2F%3E%3CmxCell%20id%3D%222%22%20value%3D%22%26lt%3Bfont%20face%3D%26quot%3BTimes%20New%20Roman%26quot%3B%20style%3D%26quot%3Bfont-size%3A%2023px%26quot%3B%26gt%3Bx%26lt%3B%2Ffont%26gt%3B%22%20style%3D%22text%3Bhtml%3D1%3Bresizable%3D0%3Bautosize%3D1%3Balign%3Dcenter%3BverticalAlign%3Dmiddle%3Bpoints%3D%5B%5D%3BfillColor%3Dnone%3BstrokeColor%3Dnone%3Brounded%3D0%3B%22%20vertex%3D%221%22%20parent%3D%221%22%3E%3CmxGeometry%20x%3D%22338%22%20y%3D%22414%22%20width%3D%2221%22%20height%3D%2221%22%20as%3D%22geometry%22%2F%3E%3C%2FmxCell%3E%3C%2Froot%3E%3C%2FmxGraphModel%3E&lt;/span&gt;" style="text;html=1;resizable=0;autosize=1;align=center;verticalAlign=middle;points=[];fillColor=none;strokeColor=none;rounded=0;" vertex="1" parent="1">
          <mxGeometry x="456" y="391" width="21" height="26" as="geometry" />
        </mxCell>
        <mxCell id="ljF8R5CVYEsb0yx4XjRm-27" value="&lt;font face=&quot;Times New Roman&quot; style=&quot;font-size: 23px&quot;&gt;z&lt;/font&gt;" style="text;html=1;resizable=0;autosize=1;align=center;verticalAlign=middle;points=[];fillColor=none;strokeColor=none;rounded=0;" vertex="1" parent="1">
          <mxGeometry x="394" y="340" width="20" height="21" as="geometry" />
        </mxCell>
      </root>
    </mxGraphModel>
  </diagram>
</mxfile>
